<svg width="315" height="64" viewBox="0 0 315 64" fill="none" xmlns="http://www.w3.org/2000/svg">
<path d="M62.8607 14.0627C52.9735 14.0627 47.6153 21.591 47.6153 21.591L50.4858 25.2296C50.4858 25.2296 53.6114 20.399 58.0766 20.399C61.9676 20.399 64.9019 22.3438 64.9019 26.6098V29.8093H61.7763C52.9735 29.8093 45 36.271 45 42.2309C45 47.5006 49.21 51.5157 53.8028 51.5157C59.5437 51.5157 63.1158 48.7553 64.9019 46.7478V50.6374H73.1943V26.6098C73.1943 18.8934 70.1325 14.0627 62.8607 14.0627ZM59.3523 45.6813C56.2905 45.6813 52.9097 42.2309 52.9097 39.6587C52.9097 37.0866 53.8665 35.4555 55.5888 35.4555H64.9019V43.4856C63.4985 44.6148 61.266 45.6813 59.3523 45.6813Z" fill="#292929"/>
<path d="M99.3156 14.0627C94.4039 14.0627 90.5128 17.8269 88.2164 20.7754V15.0038H79.924V50.6374H88.2164V26.3588C88.6629 25.1041 90.3852 21.34 94.5314 21.34C96.0624 21.34 97.4657 21.4655 98.5501 21.9674L103.589 14.7528C102.377 14.3137 100.974 14.0627 99.3156 14.0627Z" fill="#292929"/>
<path d="M125.217 14.0627C120.305 14.0627 116.414 17.8269 114.118 20.7754V15.0038H105.825V50.6374H114.118V26.3588C114.564 25.1041 116.287 21.34 120.433 21.34C121.964 21.34 123.367 21.4655 124.452 21.9674L129.491 14.7528C128.279 14.3137 126.875 14.0627 125.217 14.0627Z" fill="#292929"/>
<path d="M145.112 14.0627C135.225 14.0627 129.867 21.591 129.867 21.591L132.738 25.2296C132.738 25.2296 135.863 20.399 140.328 20.399C144.219 20.399 147.154 22.3438 147.154 26.6098V29.8093H144.028C135.225 29.8093 127.252 36.271 127.252 42.2309C127.252 47.5006 131.462 51.5157 136.054 51.5157C141.795 51.5157 145.368 48.7553 147.154 46.7478V50.6374H155.446V26.6098C155.446 18.8934 152.384 14.0627 145.112 14.0627ZM141.604 45.6813C138.542 45.6813 135.161 42.2309 135.161 39.6587C135.161 37.0866 136.118 35.4555 137.841 35.4555H147.154V43.4856C145.75 44.6148 143.518 45.6813 141.604 45.6813Z" fill="#292929"/>
<path d="M186.175 15.0038L176.862 39.4078L164.742 15.0038H156.45L173.354 48.8181L167.549 64H173.928L192.554 15.0038H186.175Z" fill="#292929"/>
<path d="M215.106 24.9787L220.081 18.3915C217.402 15.6939 213.575 14.1255 209.11 14.1255C200.179 14.1255 192.525 21.6537 192.525 32.946C192.525 43.611 198.011 51.5157 207.324 51.5157C212.937 51.5157 217.338 50.01 219.954 46.7478L214.915 42.2936C214.021 43.7992 210.768 45.2422 208.472 45.2422C205.793 45.2422 199.159 42.921 199.159 31.1267C199.159 23.8494 202.093 21.0891 205.091 21.0891C209.365 21.0891 212.873 22.2183 215.106 24.9787Z" fill="#292929"/>
<path d="M240.508 14.0627C230.621 14.0627 225.263 21.591 225.263 21.591L228.133 25.2296C228.133 25.2296 231.259 20.399 235.724 20.399C239.615 20.399 242.549 22.3438 242.549 26.6098V29.8093H239.424C230.621 29.8093 222.647 36.271 222.647 42.2309C222.647 47.5006 226.857 51.5157 231.45 51.5157C237.191 51.5157 240.763 48.7553 242.549 46.7478V50.6374H250.842V26.6098C250.842 18.8934 247.78 14.0627 240.508 14.0627ZM237 45.6813C233.938 45.6813 230.557 42.2309 230.557 39.6587C230.557 37.0866 231.514 35.4555 233.236 35.4555H242.549V43.4856C241.146 44.6148 238.913 45.6813 237 45.6813Z" fill="#292929"/>
<path d="M280.329 17.074C277.905 15.5056 275.098 14 270.697 14C260.682 14 256.153 21.8419 256.153 27.739C256.153 36.1455 273.886 33.2597 273.886 42.0427C273.886 45.9322 263.489 43.4856 260.235 40.5997L255.643 46.0577C257.429 48.6926 261.894 51.6412 267.89 51.6412C274.014 51.6412 280.329 45.1167 280.329 39.1568C280.329 25.5433 262.34 28.9937 262.34 23.0339C262.34 19.7089 272.1 19.9599 275.608 22.4693L280.329 17.074Z" fill="#292929"/>
<path d="M303.965 44.9285C295.8 45.054 292.291 41.9799 291.143 34.9536H310.025L315 29.6211C315 20.2108 307.856 14.1255 299.818 14.1255C291.526 14.1255 283.871 22.2811 283.871 32.946C283.871 43.611 289.421 51.5157 300.903 51.5157C306.516 51.5157 310.535 49.5709 313.15 46.3087L308.685 42.4818C307.792 43.9875 306.261 44.8657 303.965 44.9285ZM296.82 20.2108C303.263 20.2108 307.537 23.8494 308.94 29.6211H290.697V28.1782C290.697 23.2221 292.993 20.2108 296.82 20.2108Z" fill="#292929"/>
<path d="M14.4 5.724H9.036V0H5.616V5.724H0V9.144H5.616V14.76H9.036V9.144H14.4V5.724Z" fill="#292929"/>
<path d="M14.4 25.724H9.036V20H5.616V25.724H0V29.144H5.616V34.76H9.036V29.144H14.4V25.724Z" fill="#292929"/>
<path d="M34.4 25.724H29.036V20H25.616V25.724H20V29.144H25.616V34.76H29.036V29.144H34.4V25.724Z" fill="#292929"/>
</svg>
