<svg width="312" height="27" viewBox="0 0 312 27" fill="none" xmlns="http://www.w3.org/2000/svg">
<path d="M80.9895 23.297C81.6653 24.8501 80.5591 26.6029 78.9032 26.6029H78.7564C77.8443 26.6029 77.0195 26.0457 76.6581 25.1852L74.964 21.1515C74.6027 20.2911 73.7779 19.7338 72.8657 19.7338H63.1873C62.2751 19.7338 61.4503 20.2911 61.089 21.1515L59.3949 25.1852C59.0335 26.0457 58.2059 26.6029 57.2938 26.6029C55.6379 26.6029 54.5251 24.8501 55.2008 23.297L64.5599 1.78676C64.9277 0.941364 65.7449 0.397058 66.6462 0.397058H69.5442C70.4455 0.397058 71.2627 0.941364 71.6305 1.78676L80.9895 23.297ZM64.3869 13.0237C63.7555 14.5708 64.8615 16.2794 66.4944 16.2794H69.5708C71.2005 16.2794 72.3064 14.577 71.6812 13.0308L70.1501 9.24465C69.3712 7.31868 66.7171 7.31421 65.9322 9.23755L64.3869 13.0237Z" fill="black"/>
<path d="M99.6474 0.397058C102.883 0.397058 105.448 1.09853 107.34 2.50147C109.264 3.90441 110.225 5.79706 110.225 8.17941C110.225 10.6412 109.264 12.5471 107.34 13.8971C105.498 15.1854 103.019 15.8467 99.9042 15.8809C99.7355 15.8828 99.5689 15.9232 99.4184 16.0015C99.2679 16.0798 99.1015 16.1206 98.9328 16.1206H94.4686C93.2065 16.1206 92.1833 17.1717 92.1833 18.4684V24.2551C92.1833 25.5518 91.1602 26.6029 89.898 26.6029H89.6147C88.3526 26.6029 87.3294 25.5518 87.3294 24.2551V2.74488C87.3294 1.44821 88.3526 0.397058 89.6147 0.397058H99.6474ZM99.281 12.5868C101.265 12.5868 102.731 12.2426 103.677 11.5544C104.654 10.8397 105.142 9.75441 105.142 8.29853C105.142 6.86912 104.654 5.79706 103.677 5.08235C102.731 4.36765 101.265 4.01029 99.281 4.01029H94.4686C93.2065 4.01029 92.1833 5.06145 92.1833 6.35812V10.2389C92.1833 11.5356 93.2065 12.5868 94.4686 12.5868H99.281ZM100.648 14.061C101.548 13.7047 102.569 13.999 103.158 14.7844L109.253 22.9205C110.379 24.4246 109.336 26.6029 107.488 26.6029C106.789 26.6029 106.131 26.2661 105.711 25.6931L99.6925 17.497C98.8209 16.3098 99.2977 14.5957 100.648 14.061Z" fill="black"/>
<path d="M129.956 0.397058C133.192 0.397058 135.756 1.09853 137.649 2.50147C139.572 3.90441 140.533 5.79706 140.533 8.17941C140.533 10.6412 139.572 12.5471 137.649 13.8971C135.806 15.1854 133.328 15.8467 130.213 15.8809C130.044 15.8828 129.877 15.9232 129.727 16.0015C129.576 16.0798 129.41 16.1206 129.241 16.1206H124.777C123.515 16.1206 122.492 17.1717 122.492 18.4684V24.2551C122.492 25.5518 121.468 26.6029 120.206 26.6029H119.923C118.661 26.6029 117.638 25.5518 117.638 24.2551V2.74488C117.638 1.44821 118.661 0.397058 119.923 0.397058H129.956ZM129.589 12.5868C131.574 12.5868 133.039 12.2426 133.985 11.5544C134.962 10.8397 135.451 9.75441 135.451 8.29853C135.451 6.86912 134.962 5.79706 133.985 5.08235C133.039 4.36765 131.574 4.01029 129.589 4.01029H124.777C123.515 4.01029 122.492 5.06145 122.492 6.35812V10.2389C122.492 11.5356 123.515 12.5868 124.777 12.5868H129.589ZM130.957 14.061C131.857 13.7047 132.878 13.999 133.466 14.7844L139.561 22.9205C140.688 24.4246 139.644 26.6029 137.796 26.6029C137.098 26.6029 136.44 26.2661 136.019 25.6931L130.001 17.497C129.129 16.3098 129.606 14.5956 130.957 14.061Z" fill="black"/>
<path d="M171.601 23.297C172.277 24.8501 171.171 26.6029 169.515 26.6029H169.368C168.456 26.6029 167.631 26.0457 167.27 25.1852L165.576 21.1515C165.215 20.2911 164.39 19.7338 163.478 19.7338H153.799C152.887 19.7338 152.062 20.2911 151.701 21.1515L150.007 25.1852C149.645 26.0457 148.818 26.6029 147.906 26.6029C146.25 26.6029 145.137 24.8501 145.813 23.297L155.172 1.78676C155.54 0.941364 156.357 0.397058 157.258 0.397058H160.156C161.057 0.397058 161.875 0.941363 162.242 1.78676L171.601 23.297ZM154.999 13.0237C154.367 14.5708 155.473 16.2794 157.106 16.2794H160.183C161.812 16.2794 162.918 14.577 162.293 13.0308L160.762 9.24466C159.983 7.31868 157.329 7.31421 156.544 9.23755L154.999 13.0237Z" fill="black"/>
<path d="M192.571 0.397058C194.382 0.397058 195.451 2.48347 194.426 4.01702L186.441 15.9567C186.18 16.3479 186.04 16.8115 186.04 17.2861V24.2551C186.04 25.5518 185.016 26.6029 183.754 26.6029H183.425C182.163 26.6029 181.14 25.5518 181.14 24.2551V17.2836C181.14 16.8105 181.001 16.3484 180.741 15.9579L172.774 3.99353C171.758 2.46798 172.821 0.397058 174.62 0.397058C175.374 0.397058 176.077 0.786966 176.491 1.43434L181.231 8.85441L181.678 9.58398C182.574 11.0483 184.651 11.0483 185.547 9.58398L185.994 8.85441L190.686 1.44757C191.101 0.792306 191.81 0.397058 192.571 0.397058Z" fill="black"/>
<path d="M222.633 18.9502C223.937 19.327 224.655 20.8033 223.87 21.9371C223.425 22.5812 222.909 23.1703 222.322 23.7044C221.101 24.7897 219.666 25.6103 218.017 26.1662C216.369 26.7221 214.553 27 212.568 27C209.668 27 207.15 26.4574 205.013 25.3721C202.876 24.2868 201.227 22.7382 200.067 20.7265C198.907 18.7147 198.327 16.3059 198.327 13.5C198.327 10.6941 198.907 8.28529 200.067 6.27353C201.227 4.26176 202.876 2.71324 205.013 1.62794C207.15 0.542647 209.653 0 212.522 0C214.507 0 216.293 0.238235 217.88 0.714706C219.498 1.19118 220.872 1.90588 222.001 2.85882C222.515 3.29255 222.976 3.77564 223.382 4.30808C224.191 5.36731 223.581 6.8306 222.354 7.30447L222.079 7.41091C220.916 7.86015 219.659 7.22921 218.89 6.22704C218.442 5.64284 217.922 5.16863 217.331 4.80441C216.171 4.06323 214.659 3.69265 212.797 3.69265C210.935 3.69265 209.302 4.07647 207.898 4.84412C206.493 5.61176 205.394 6.72353 204.601 8.17941C203.837 9.63529 203.456 11.4088 203.456 13.5C203.456 15.5647 203.822 17.3382 204.555 18.8206C205.287 20.2765 206.341 21.3882 207.714 22.1559C209.088 22.9235 210.737 23.3074 212.66 23.3074C214.522 23.3074 216.125 22.8971 217.468 22.0765C218.246 21.5969 218.896 20.9857 219.42 20.2431C220.124 19.2436 221.296 18.5637 222.452 18.8979L222.633 18.9502Z" fill="black"/>
<path d="M254.522 23.297C255.197 24.8501 254.091 26.6029 252.435 26.6029H252.289C251.376 26.6029 250.552 26.0457 250.19 25.1852L248.496 21.1515C248.135 20.2911 247.31 19.7338 246.398 19.7338H236.719C235.807 19.7338 234.982 20.2911 234.621 21.1515L232.927 25.1852C232.566 26.0457 231.738 26.6029 230.826 26.6029C229.17 26.6029 228.057 24.8501 228.733 23.297L238.092 1.78676C238.46 0.941365 239.277 0.397058 240.178 0.397058H243.076C243.978 0.397058 244.795 0.941363 245.163 1.78676L254.522 23.297ZM237.919 13.0237C237.288 14.5708 238.394 16.2794 240.027 16.2794H243.103C244.733 16.2794 245.839 14.577 245.213 13.0308L243.682 9.24466C242.903 7.31868 240.249 7.31421 239.464 9.23756L237.919 13.0237Z" fill="black"/>
<path d="M270.852 0C273.569 0 275.919 0.45 277.904 1.35C279.235 1.93604 280.429 2.7127 281.485 3.68C282.352 4.47355 282.206 5.85197 281.303 6.60203C280.392 7.35905 279.069 7.17691 278.201 6.36897C277.425 5.64744 276.593 5.08621 275.706 4.68529C274.271 3.99706 272.561 3.65294 270.577 3.65294C269.112 3.65294 267.906 3.825 266.959 4.16912C266.013 4.51323 265.311 4.97647 264.853 5.55882C264.426 6.11471 264.212 6.75 264.212 7.4647C264.212 8.28529 264.532 9 265.173 9.60882C265.845 10.2176 267.081 10.6941 268.883 11.0382L275.019 12.2294C277.949 12.7853 280.025 13.6324 281.246 14.7706C282.467 15.9088 283.078 17.3515 283.078 19.0985C283.078 20.7132 282.574 22.1162 281.567 23.3074C280.559 24.4985 279.155 25.4118 277.354 26.0471C275.583 26.6824 273.492 27 271.081 27C268.944 27 267.02 26.7618 265.311 26.2853C263.601 25.8088 262.105 25.1603 260.823 24.3397C260.202 23.9422 259.635 23.5168 259.121 23.0634C258.237 22.2825 258.374 20.9047 259.265 20.1318C260.227 19.2977 261.675 19.5026 262.614 20.3633C262.886 20.6125 263.175 20.8527 263.479 21.0838C264.456 21.7985 265.586 22.3544 266.868 22.7515C268.18 23.1485 269.631 23.3471 271.218 23.3471C272.622 23.3471 273.828 23.2015 274.835 22.9103C275.873 22.6191 276.652 22.1956 277.171 21.6397C277.72 21.0574 277.995 20.3691 277.995 19.575C277.995 18.8074 277.69 18.1324 277.079 17.55C276.499 16.9676 275.4 16.5176 273.782 16.2L267.142 14.8897C265.311 14.5456 263.8 14.0559 262.609 13.4206C261.419 12.7853 260.533 12.0176 259.953 11.1176C259.373 10.1912 259.083 9.15882 259.083 8.02059C259.083 6.53823 259.541 5.20147 260.457 4.01029C261.403 2.79265 262.762 1.82647 264.532 1.11176C266.303 0.370588 268.409 0 270.852 0Z" fill="black"/>
<path d="M291.756 26.6029C290.494 26.6029 289.471 25.5518 289.471 24.2551V2.74488C289.471 1.44821 290.494 0.397058 291.756 0.397058H309.581C310.563 0.397058 311.359 1.2148 311.359 2.22353C311.359 3.23226 310.563 4.05 309.581 4.05H296.656C295.393 4.05 294.37 5.10116 294.37 6.39783V9.24629C294.37 10.543 295.393 11.5941 296.656 11.5941H305.911C306.871 11.5941 307.65 12.3941 307.65 13.3809C307.65 14.3677 306.871 15.1676 305.911 15.1676H296.656C295.393 15.1676 294.37 16.2188 294.37 17.5155V20.6022C294.37 21.8988 295.393 22.95 296.656 22.95H310.222C311.204 22.95 312 23.7677 312 24.7765C312 25.7852 311.204 26.6029 310.222 26.6029H291.756Z" fill="black"/>
<path d="M7.24915 1.26266C7.24915 1.96001 6.68384 2.52532 5.98649 2.52532H5.06549C3.85949 2.52532 2.88183 3.50297 2.88183 4.70898V21.8217C2.88183 23.0277 3.85949 24.0054 5.06549 24.0054H5.98649C6.68384 24.0054 7.24915 24.5707 7.24915 25.268V25.268C7.24915 25.9654 6.68384 26.5307 5.98649 26.5307H3.62458C1.62278 26.5307 0 24.9079 0 22.9061V3.62457C0 1.62278 1.62278 0 3.62457 0H5.98649C6.68384 0 7.24915 0.565312 7.24915 1.26266V1.26266Z" fill="black"/>
<path d="M29 25.268C29 24.5707 29.5653 24.0054 30.2627 24.0054H31.1929C32.404 24.0054 33.3858 23.0236 33.3858 21.8125V4.71822C33.3858 3.50712 32.404 2.52532 31.1929 2.52532H30.2627C29.5653 2.52532 29 1.96001 29 1.26266V1.26266C29 0.565312 29.5653 0 30.2627 0H32.625C34.627 0 36.25 1.62297 36.25 3.625V22.9057C36.25 24.9077 34.627 26.5307 32.625 26.5307H30.2627C29.5653 26.5307 29 25.9654 29 25.268V25.268Z" fill="black"/>
<path d="M14.4594 14.1125L14.4754 14.1176L14.4919 14.1205L16.165 14.4166L15.1581 15.4487C15.0313 15.5786 14.9142 15.7176 14.8076 15.8646L13.4672 17.7121C12.9947 18.3635 13.1391 19.2745 13.7899 19.7479C14.4448 20.2242 15.3623 20.0757 15.8336 19.4172L17.1508 17.5767C17.2529 17.4341 17.3447 17.2844 17.4256 17.1288L18.1006 15.8297L18.7696 17.1171C18.8547 17.281 18.9519 17.4383 19.0603 17.5878L20.3942 19.4263C20.8688 20.0805 21.7842 20.2256 22.4378 19.7502C23.0904 19.2756 23.2352 18.362 22.7614 17.7089L21.4293 15.8728C21.3184 15.72 21.1961 15.5758 21.0635 15.4415L20.0533 14.4188L21.739 14.1205L21.7555 14.1176L21.7715 14.1125L24.1765 13.3445C24.933 13.1029 25.3528 12.2961 25.1165 11.538C24.877 10.7696 24.0558 10.345 23.2903 10.5938L21.115 11.3008C20.944 11.3563 20.7772 11.4243 20.6161 11.5041L19.3125 12.1495L19.5659 10.4652L19.5685 10.4477L19.5687 10.43L19.5886 7.91947C19.5951 7.10129 18.9337 6.43457 18.1155 6.43457C17.2973 6.43457 16.6358 7.10129 16.6423 7.91947L16.6622 10.43L16.6624 10.4466L16.6647 10.463L16.9024 12.1416L15.6148 11.5041C15.4537 11.4243 15.287 11.3563 15.116 11.3008L12.9406 10.5938C12.1751 10.345 11.3539 10.7696 11.1144 11.538C10.8781 12.2961 11.2979 13.1029 12.0544 13.3445L14.4594 14.1125Z" fill="black" stroke="black" stroke-width="0.5"/>
</svg>
