<svg width="213" height="22" viewBox="0 0 213 22" fill="none" xmlns="http://www.w3.org/2000/svg">
<path d="M21.54 18.9827C22.1 20.2482 21.1832 21.6765 19.8108 21.6765H19.6892C18.9332 21.6765 18.2496 21.2224 17.9501 20.5213L16.5461 17.2346C16.2466 16.5335 15.563 16.0794 14.807 16.0794H6.78556C6.02957 16.0794 5.34599 16.5335 5.0465 17.2346L3.64246 20.5213C3.34297 21.2224 2.65705 21.6765 1.90107 21.6765C0.52869 21.6765 -0.393602 20.2482 0.166449 18.9827L7.92316 1.45588C8.22801 0.767038 8.90527 0.323529 9.6523 0.323529H12.0541C12.8011 0.323529 13.4784 0.767037 13.7833 1.45588L21.54 18.9827ZM7.77979 10.6119C7.25646 11.8725 8.17312 13.2647 9.52649 13.2647H12.0762C13.4269 13.2647 14.3435 11.8776 13.8252 10.6177L12.5563 7.53268C11.9108 5.96337 9.7111 5.95973 9.0605 7.5269L7.77979 10.6119Z" fill="black"/>
<path d="M37.0035 0.323529C39.6854 0.323529 41.8107 0.895098 43.3793 2.03823C44.9733 3.18137 45.7703 4.72353 45.7703 6.66471C45.7703 8.67059 44.9733 10.2235 43.3793 11.3235C41.8524 12.3733 39.7981 12.9121 37.2164 12.94C37.0765 12.9415 36.9384 12.9744 36.8137 13.0382C36.6889 13.102 36.5511 13.1353 36.4112 13.1353H32.7113C31.6653 13.1353 30.8173 13.9918 30.8173 15.0483V19.7634C30.8173 20.82 29.9693 21.6765 28.9233 21.6765H28.6885C27.6424 21.6765 26.7944 20.82 26.7944 19.7634V2.23657C26.7944 1.18003 27.6424 0.323529 28.6885 0.323529H37.0035ZM36.6998 10.2559C38.3444 10.2559 39.5589 9.97549 40.3432 9.41471C41.1528 8.83235 41.5577 7.94804 41.5577 6.76176C41.5577 5.59706 41.1528 4.72353 40.3432 4.14118C39.5589 3.55882 38.3444 3.26765 36.6998 3.26765H32.7113C31.6653 3.26765 30.8173 4.12415 30.8173 5.18069V8.34284C30.8173 9.39938 31.6653 10.2559 32.7113 10.2559H36.6998ZM37.8331 11.4571C38.5791 11.1668 39.4253 11.4066 39.9129 12.0465L44.9642 18.6759C45.898 19.9016 45.033 21.6765 43.5018 21.6765C42.9228 21.6765 42.3773 21.402 42.0287 20.9351L37.0409 14.2568C36.3185 13.2895 36.7137 11.8928 37.8331 11.4571Z" fill="black"/>
<path d="M62.1228 0.323529C64.8047 0.323529 66.93 0.895098 68.4987 2.03823C70.0926 3.18137 70.8896 4.72353 70.8896 6.66471C70.8896 8.67059 70.0926 10.2235 68.4987 11.3235C66.9717 12.3733 64.9174 12.9121 62.3357 12.94C62.1959 12.9415 62.0578 12.9744 61.933 13.0382C61.8083 13.102 61.6704 13.1353 61.5306 13.1353H57.8307C56.7846 13.1353 55.9366 13.9918 55.9366 15.0483V19.7634C55.9366 20.82 55.0886 21.6765 54.0426 21.6765H53.8078C52.7617 21.6765 51.9137 20.82 51.9137 19.7634V2.23657C51.9137 1.18003 52.7617 0.323529 53.8078 0.323529H62.1228ZM61.8192 10.2559C63.4637 10.2559 64.6782 9.97549 65.4625 9.41471C66.2722 8.83235 66.677 7.94804 66.677 6.76176C66.677 5.59706 66.2722 4.72353 65.4625 4.14118C64.6782 3.55882 63.4637 3.26765 61.8192 3.26765H57.8307C56.7846 3.26765 55.9366 4.12415 55.9366 5.18069V8.34284C55.9366 9.39938 56.7846 10.2559 57.8307 10.2559H61.8192ZM62.9524 11.4571C63.6984 11.1668 64.5446 11.4066 65.0322 12.0465L70.0835 18.6759C71.0173 19.9015 70.1523 21.6765 68.6211 21.6765C68.0421 21.6765 67.4967 21.402 67.148 20.9351L62.1602 14.2568C61.4378 13.2895 61.833 11.8928 62.9524 11.4571Z" fill="black"/>
<path d="M96.6385 18.9827C97.1986 20.2482 96.2817 21.6765 94.9093 21.6765H94.7877C94.0317 21.6765 93.3481 21.2224 93.0486 20.5213L91.6446 17.2346C91.3451 16.5335 90.6615 16.0794 89.9055 16.0794H81.8841C81.1281 16.0794 80.4445 16.5335 80.145 17.2346L78.741 20.5213C78.4415 21.2224 77.7556 21.6765 76.9996 21.6765C75.6272 21.6765 74.7049 20.2482 75.265 18.9827L83.0217 1.45588C83.3265 0.767038 84.0038 0.323529 84.7508 0.323529H87.1526C87.8997 0.323529 88.5769 0.767037 88.8818 1.45588L96.6385 18.9827ZM82.8783 10.6119C82.355 11.8725 83.2717 13.2647 84.625 13.2647H87.1747C88.5254 13.2647 89.442 11.8776 88.9238 10.6177L87.6548 7.53268C87.0093 5.96337 84.8096 5.95973 84.159 7.5269L82.8783 10.6119Z" fill="black"/>
<path d="M114.018 0.323529C115.519 0.323529 116.405 2.02357 115.555 3.27313L108.938 13.0017C108.721 13.3205 108.605 13.6982 108.605 14.085V19.7634C108.605 20.82 107.757 21.6765 106.711 21.6765H106.438C105.392 21.6765 104.544 20.82 104.544 19.7634V14.0829C104.544 13.6974 104.429 13.3209 104.213 13.0028L97.6101 3.25399C96.7682 2.01094 97.6495 0.323529 99.1406 0.323529C99.7653 0.323529 100.348 0.641232 100.691 1.16872L104.62 7.21471L104.99 7.80917C105.733 9.00229 107.454 9.00229 108.197 7.80917L108.567 7.21471L112.456 1.1795C112.8 0.645583 113.388 0.323529 114.018 0.323529Z" fill="black"/>
<path d="M138.933 15.4409C140.014 15.7479 140.609 16.9508 139.959 17.8747C139.589 18.3995 139.162 18.8795 138.675 19.3147C137.663 20.199 136.474 20.8676 135.108 21.3206C133.742 21.7735 132.236 22 130.592 22C128.188 22 126.101 21.5578 124.33 20.6735C122.558 19.7892 121.192 18.5275 120.231 16.8882C119.269 15.249 118.789 13.2863 118.789 11C118.789 8.71373 119.269 6.75098 120.231 5.11176C121.192 3.47255 122.558 2.21078 124.33 1.32647C126.101 0.442157 128.175 0 130.554 0C132.198 0 133.678 0.194118 134.994 0.582353C136.335 0.970589 137.474 1.55294 138.41 2.32941C138.836 2.68282 139.217 3.07645 139.554 3.51029C140.225 4.37337 139.719 5.56567 138.702 5.95179L138.474 6.03852C137.51 6.40456 136.469 5.89046 135.831 5.07389C135.459 4.59787 135.029 4.21148 134.539 3.91471C133.577 3.31078 132.325 3.00882 130.781 3.00882C129.238 3.00882 127.884 3.32157 126.721 3.94706C125.557 4.57255 124.646 5.47843 123.988 6.66471C123.355 7.85098 123.039 9.29608 123.039 11C123.039 12.6824 123.343 14.1275 123.95 15.3353C124.557 16.5216 125.43 17.4275 126.569 18.0529C127.707 18.6784 129.074 18.9912 130.668 18.9912C132.211 18.9912 133.539 18.6569 134.652 17.9882C135.297 17.5974 135.836 17.0995 136.27 16.4944C136.854 15.68 137.825 15.126 138.783 15.3983L138.933 15.4409Z" fill="black"/>
<path d="M165.362 18.9827C165.922 20.2482 165.006 21.6765 163.633 21.6765H163.512C162.756 21.6765 162.072 21.2224 161.772 20.5213L160.368 17.2346C160.069 16.5335 159.385 16.0794 158.629 16.0794H150.608C149.852 16.0794 149.168 16.5335 148.869 17.2346L147.465 20.5213C147.165 21.2224 146.479 21.6765 145.723 21.6765C144.351 21.6765 143.429 20.2482 143.989 18.9827L151.746 1.45588C152.05 0.767038 152.728 0.323529 153.475 0.323529H155.876C156.624 0.323529 157.301 0.767037 157.606 1.45588L165.362 18.9827ZM151.602 10.6119C151.079 11.8725 151.995 13.2647 153.349 13.2647H155.899C157.249 13.2647 158.166 11.8776 157.648 10.6177L156.379 7.53269C155.733 5.96337 153.533 5.95973 152.883 7.5269L151.602 10.6119Z" fill="black"/>
<path d="M178.896 0C181.148 0 183.096 0.366666 184.741 1.1C185.844 1.57751 186.834 2.21035 187.709 2.99852C188.428 3.64512 188.307 4.76827 187.558 5.37943C186.803 5.99626 185.707 5.84785 184.987 5.18954C184.344 4.60162 183.655 4.14432 182.919 3.81765C181.73 3.25686 180.313 2.97647 178.669 2.97647C177.454 2.97647 176.455 3.11667 175.671 3.39706C174.886 3.67745 174.304 4.0549 173.925 4.52941C173.571 4.98235 173.393 5.5 173.393 6.08235C173.393 6.75098 173.659 7.33333 174.19 7.82941C174.747 8.32549 175.772 8.71373 177.265 8.99412L182.35 9.9647C184.779 10.4176 186.499 11.1078 187.512 12.0353C188.524 12.9627 189.03 14.1382 189.03 15.5618C189.03 16.8775 188.612 18.0206 187.777 18.9912C186.942 19.9618 185.778 20.7059 184.286 21.2235C182.818 21.7412 181.085 22 179.086 22C177.315 22 175.721 21.8059 174.304 21.4176C172.887 21.0294 171.648 20.501 170.585 19.8324C170.07 19.5085 169.6 19.1618 169.174 18.7924C168.441 18.1561 168.555 17.0334 169.294 16.4037C170.091 15.724 171.291 15.891 172.069 16.5924C172.295 16.7954 172.534 16.9911 172.786 17.1794C173.596 17.7618 174.532 18.2147 175.595 18.5382C176.683 18.8618 177.884 19.0235 179.2 19.0235C180.364 19.0235 181.363 18.9049 182.198 18.6676C183.059 18.4304 183.704 18.0853 184.134 17.6324C184.589 17.1578 184.817 16.5971 184.817 15.95C184.817 15.3245 184.564 14.7745 184.058 14.3C183.577 13.8255 182.666 13.4588 181.325 13.2L175.822 12.1324C174.304 11.852 173.052 11.4529 172.065 10.9353C171.078 10.4176 170.345 9.79216 169.864 9.05882C169.383 8.30392 169.143 7.46274 169.143 6.53529C169.143 5.32745 169.522 4.23823 170.281 3.26765C171.066 2.27549 172.192 1.48824 173.659 0.905882C175.127 0.301961 176.872 0 178.896 0Z" fill="black"/>
<path d="M196.222 21.6765C195.176 21.6765 194.328 20.82 194.328 19.7634V2.23657C194.328 1.18003 195.176 0.323529 196.222 0.323529H210.995C211.809 0.323529 212.469 0.989835 212.469 1.81176C212.469 2.63369 211.809 3.3 210.995 3.3H200.283C199.237 3.3 198.389 4.1565 198.389 5.21304V7.53401C198.389 8.59056 199.237 9.44706 200.283 9.44706H207.953C208.749 9.44706 209.395 10.0989 209.395 10.9029C209.395 11.707 208.749 12.3588 207.953 12.3588H200.283C199.237 12.3588 198.389 13.2153 198.389 14.2719V16.787C198.389 17.8435 199.237 18.7 200.283 18.7H211.527C212.34 18.7 213 19.3663 213 20.1882C213 21.0102 212.34 21.6765 211.527 21.6765H196.222Z" fill="black"/>
</svg>
